{"title":"House Of Cards 2013 Movies HDRip XviD New Souce Best Quality wit","uid":8861746,"size":1483116686,"categoryP":"video","categoryS":"movies","magnet":"?xt=urn:btih:ca8a09ccce9b00e89945a14d1b67583a95750bff&amp;dn=House+Of+Cards+2013+Movies+HDRip+XviD+New+Souce+Best+Quality+wit&amp;tr=udp%3A%2F%2Ftracker.openbittorrent.com%3A80&amp;tr=udp%3A%2F%2Fopen.demonii.com%3A1337&amp;tr=udp%3A%2F%2Ftracker.coppersurfer.tk%3A6969&amp;tr=udp%3A%2F%2Fexodus.desync.com%3A6969","seeders":1,"leechers":0,"uploader":"basicssom","files":3,"time":1377792297,"description":" &lt;a href=&quot;http://users2.jabry.com/myimghost/logo.jpg&quot; rel=&quot;nofollow&quot; target=&quot;_NEW&quot;&gt;http://users2.jabry.com/myimghost/logo.jpg&lt;/a&gt;\n\nHouse Of Cards 2013 Movies HDRip XviD New Souce Best Quality with Sample ~ â˜»rDXâ˜»\n\nScreen Shots :\n &lt;a href=&quot;\nhttp://myimghosting.serveftp.com/13/HouseOfCards.html&quot; rel=&quot;nofollow&quot; target=&quot;_NEW&quot;&gt;\nhttp://myimghosting.serveftp.com/13/HouseOfCards.html&lt;/a&gt;\n &lt;a href=&quot;\nhttp://myimghost.cwahi.net/HouseOfCards.html&quot; rel=&quot;nofollow&quot; target=&quot;_NEW&quot;&gt;\nhttp://myimghost.cwahi.net/HouseOfCards.html&lt;/a&gt;\n\nAll rDX torrents are Seeding From the 1Gbps Seedbox 24X7\n &lt;a href=&quot;\nhttp://users2.jabry.com/myimghost/HouseOfCards/HouseOfCards.jpg&quot; rel=&quot;nofollow&quot; target=&quot;_NEW&quot;&gt;\nhttp://users2.jabry.com/myimghost/HouseOfCards/HouseOfCards.jpg&lt;/a&gt;\n\nFormat                                   : AVI\nFormat/Info                              : Audio Video Interleave\nFormat profile                           : OpenDML\nFile size                                : 1.32 GiB\nDuration                                 : 1h 45mn\nOverall bit rate                         : 1 796 Kbps\nWriting library                          : MPlayer\n\nVideo\nID                                       : 0\nFormat                                   : MPEG-4 Visual\nFormat profile                           : Advanced Simple@L5\nFormat settings, BVOP                    : 2\nFormat settings, QPel                    : No\nFormat settings, GMC                     : No warppoints\nFormat settings, Matrix                  : Default (H.263)\nMuxing mode                              : Packed bitstream\nCodec ID                                 : XVID\nCodec ID/Hint                            : XviD\nDuration                                 : 1h 45mn\nBit rate                                 : 1 598 Kbps\nWidth                                    : 720 pixels\nHeight                                   : 400 pixels\nDisplay aspect ratio                     : 16:9\nFrame rate                               : 23.976 fps\nColor space                              : YUV\nChroma subsampling                       : 4:2:0\nBit depth                                : 8 bits\nScan type                                : Progressive\nCompression mode                         : Lossy\nBits/(Pixel*Frame)                       : 0.231\nStream size                              : 1.18 GiB (89%)\nWriting library                          : XviD 64\n\nAudio\nID                                       : 1\nFormat                                   : AC-3\nFormat/Info                              : Audio Coding 3\nMode extension                           : CM (complete main)\nFormat settings, Endianness              : Big\nCodec ID                                 : 2000\nDuration                                 : 1h 45mn\nBit rate mode                            : Constant\nBit rate                                 : 192 Kbps\nChannel(s)                               : 2 channels\nChannel positions                        : Front: L R\nSampling rate                            : 48.0 KHz\nBit depth                                : 16 bits\nCompression mode                         : Lossy\nStream size                              : 145 MiB (11%)\nAlignment                                : Split accross interleaves\nInterleave, duration                     : 500 ms (11.99 video frames)\nInterleave, preload duration             : 500 ms","torrent":{"xt":"urn:btih:ca8a09ccce9b00e89945a14d1b67583a95750bff","amp;dn":"House+Of+Cards+2013+Movies+HDRip+XviD+New+Souce+Best+Quality+wit","amp;tr":["udp%3A%2F%2Ftracker.openbittorrent.com%3A80","udp%3A%2F%2Fopen.demonii.com%3A1337","udp%3A%2F%2Ftracker.coppersurfer.tk%3A6969","udp%3A%2F%2Fexodus.desync.com%3A6969"],"infoHash":"ca8a09ccce9b00e89945a14d1b67583a95750bff","infoHashBuffer":{"type":"Buffer","data":[202,138,9,204,206,155,0,232,153,69,161,77,27,103,88,58,149,117,11,255]},"announce":[],"urlList":[]}}